# xmcd
#
# Track frame offsets:
#	150
#	13531
#	27877
#	40566
#	53811
#	64790
#	76764
#	87391
#	101918
#	113743
#	131639
#	146682
#	161990
#
# Disc length: 2321 seconds
#
# Revision: 0
# Processed by: cddbd v1.4PL0 Copyright (c) Steve Scherf et al.
# Submitted via: dBpowerAMP V4.0
#
DISCID=a7090f0d
DTITLE=Kenny Rogers - The Gold Collection
DYEAR=1900
DGENRE=Country
TTITLE0=Ruby Dont Take Your Love To Town
TTITLE1=Sunshine
TTITLE2=Ruben James
TTITLE3=Sunshine On Ruby Mountain
TTITLE4=Always Leaving,Always Gone
TTITLE5=What Am I Gonna Do?
TTITLE6=She Even Woke Me Up To Say Goodbye
TTITLE7=Hear The Call
TTITLE8=Me And Bobby McGee
TTITLE9=Something's Burning
TTITLE10=Just Dropped In
TTITLE11=For The Good Times
TTITLE12=Elvira
EXTD=Kenny Rogers-The Gold Collection
EXTT0=
EXTT1=
EXTT2=
EXTT3=
EXTT4=
EXTT5=
EXTT6=
EXTT7=
EXTT8=
EXTT9=
EXTT10=
EXTT11=
EXTT12=
PLAYORDER=
